<svg width="42" height="52" viewBox="0 0 42 52" fill="none" xmlns="http://www.w3.org/2000/svg">
<g clip-path="url(#clip0_341_2318)">
<path d="M22.0752 2.8176C22.3229 1.89888 22.7708 1.05159 23.3844 0.34128C22.8073 0.252543 22.3157 0.127756 21.8054 0.105572C20.3012 0.0473384 18.7943 -0.0247606 17.2901 0.000196745C15.997 0.0279271 14.4928 1.52259 14.1348 2.99508C14.1164 3.08893 14.0684 3.17379 13.9985 3.23633C13.8462 2.29904 14.0279 1.38117 14.1749 0.382876C11.9733 0.912526 9.80921 1.39503 8.02982 2.90634C6.91036 3.85749 6.76341 5.14973 6.84089 6.54734C6.94598 8.28326 7.00743 10.0229 7.02524 11.7662C7.04128 13.0889 7.05196 14.4089 7.41265 15.6928C7.65423 16.6586 8.12655 17.5456 8.78593 18.2717C10.2046 16.167 10.568 13.8654 10.2046 11.3419C16.9062 13.0995 23.9419 12.9356 30.5607 10.8677C30.0611 13.3357 31.1352 15.3379 32.1638 17.3234C32.773 18.4825 33.6813 18.7764 34.9077 18.3549C36.5107 17.8003 37.4913 16.5913 38.0203 14.994C39.1504 11.5859 38.2875 8.67703 35.8829 6.17575C34.0634 4.28731 31.8752 3.06718 29.5054 2.09661C28.1695 1.54201 26.8123 1.04563 25.3214 1.1205C24.7702 1.13723 24.2284 1.27313 23.7306 1.51951C23.2328 1.76589 22.7901 2.11734 22.4306 2.55139C22.3558 2.63458 22.2863 2.72055 22.2115 2.80096C22.2035 2.80928 22.1821 2.80651 22.0752 2.8176Z" fill="#0081C9"/>
<path d="M24.1004 20.1987C24.0972 20.4608 24.1443 20.7209 24.239 20.9638C24.3336 21.2068 24.474 21.4278 24.6518 21.6139C24.8296 21.8 25.0413 21.9475 25.2747 22.0478C25.508 22.1481 25.7582 22.1992 26.0107 22.198C26.2674 22.1973 26.5214 22.1439 26.7581 22.041C26.9949 21.938 27.2097 21.7875 27.3902 21.5981C27.5707 21.4087 27.7133 21.1841 27.8099 20.9373C27.9065 20.6905 27.9552 20.4263 27.9531 20.1599C27.9439 19.631 27.7333 19.1275 27.3672 18.7595C27.0012 18.3916 26.5095 18.1891 26 18.1965C25.7469 18.1923 25.4956 18.2414 25.2614 18.3409C25.0271 18.4404 24.8147 18.5882 24.6371 18.7754C24.4595 18.9626 24.3204 19.1853 24.2281 19.4299C24.1358 19.6746 24.0924 19.9361 24.1004 20.1987Z" fill="#0081C9"/>
<path d="M16.511 21.9071C16.7633 21.91 17.0137 21.8611 17.2477 21.7632C17.4818 21.6652 17.6948 21.5202 17.8746 21.3364C18.0544 21.1526 18.1974 20.9337 18.2954 20.6923C18.3933 20.451 18.4443 20.1918 18.4453 19.9299C18.4453 19.6722 18.3959 19.417 18.2999 19.1793C18.204 18.9416 18.0633 18.7261 17.8863 18.5454C17.7092 18.3647 17.4992 18.2225 17.2686 18.1269C17.038 18.0313 16.7913 17.9844 16.543 17.9888C16.282 17.9638 16.0189 17.9953 15.7703 18.0812C15.5216 18.1672 15.2928 18.3058 15.0984 18.4882C14.904 18.6706 14.7482 18.893 14.6408 19.1411C14.5335 19.3893 14.4769 19.6578 14.4747 19.9299C14.4724 20.2019 14.5246 20.4714 14.6279 20.7214C14.7312 20.9714 14.8834 21.1965 15.0747 21.3823C15.2661 21.5681 15.4926 21.7107 15.7398 21.8011C15.987 21.8914 16.2496 21.9275 16.511 21.9071Z" fill="#0081C9"/>
<path d="M23.2972 25.7285H21.4938C20.6923 25.7285 19.8907 25.7285 19.0678 25.7285C18.7793 25.7285 18.6778 25.845 18.7098 26.1389C18.822 27.226 20.0457 28.2104 21.1892 28.105C22.4075 27.9885 23.3667 26.9403 23.2972 25.7285Z" fill="#0081C9"/>
<path d="M39.6289 31.9043L21.0976 39.691V51.2684H34.6915L39.6289 31.9043Z" fill="#0081C9"/>
<path d="M38.9219 29.0391V31.1715L21.0959 39.3575L38.9219 29.0391Z" fill="#0081C9"/>
<path d="M35.9102 29.6409V28.1074L21.0979 38.9583L35.9102 29.6409Z" fill="#0081C9"/>
<path d="M1.89715 31.9043L20.4258 39.691V51.2684H6.83188L1.89715 31.9043Z" fill="#0081C9"/>
<path d="M2.59983 29.0391V31.1715L20.4258 39.3575L2.59983 29.0391Z" fill="#0081C9"/>
<path d="M5.61357 29.6409V28.1074L20.4258 38.9583L5.61357 29.6409Z" fill="#0081C9"/>
<path d="M0 51.2676H42V51.9997H0V51.2676Z" fill="#0081C9"/>
</g>
<defs>
<clipPath id="clip0_341_2318">
<rect width="42" height="52" fill="white" transform="matrix(-1 0 0 1 42 0)"/>
</clipPath>
</defs>
</svg>
